# xmcd
#
# Track frame offsets:
#	150
#	11858
#	26789
#	39315
#	53788
#	64079
#	77890
#	92937
#	103565
#	114924
#	128432
#	143597
#	155197
#	167401
#	181902
#	193408
#	213444
#	225679
#	239329
#	251834
#
# Disc length: 3535 seconds
#
# Revision: 1
# Processed by: cddbd v1.4PL0 Copyright (c) Steve Scherf et al.
# Submitted via: audiograbber 1.82.02
#
DISCID=130dcd14
DTITLE=Frank Sinatra, Sammy Davis Jr. and Dean Martin - The Rat Pack
DYEAR=1900
DGENRE=
TTITLE0=All Of Me - Frank Sinatra
TTITLE1=(Hey, Won't You Play) Another Somebody Done Somebody Wrong Song - Frank
TTITLE1=Sinatra
TTITLE2=If  - Frank Sinatra
TTITLE3=Fools Rush In - Frank Sinatra
TTITLE4=Mention A Mansion - Frank Sinatra
TTITLE5=I'll Be Seeing You  - Frank Sinatra
TTITLE6=Nancy (With The Laughing Face) - Frank Sinatra
TTITLE7=Oh, Lonesome Me  - Frank Sinatra
TTITLE8=Powder Your Face With Sunshine - Frank Sinatra
TTITLE9=Always - Frank Sinatra
TTITLE10=Please Don't Tell Me How The Story Ends - Frank Sinatra
TTITLE11=That Old Black Magic - Frank Sinatra
TTITLE12=Almost Like Being In Love - Frank Sinatra
TTITLE13=We Could Have Been The Closest Of Friends  - Frank Sinatra
TTITLE14=I'll Always Love You  - Frank Sinatra
TTITLE15=Without A Song  - Frank Sinatra
TTITLE16=What I've Got In Mind  - Frank Sinatra
TTITLE17=That Certain Party - Frank Sinatra
TTITLE18=Falling In Love With Love - Frank Sinatra
TTITLE19=Smoke, Smoke, Smoke That Cigarette - Frank Sinatra
EXTD=
EXTT0=
EXTT1=
EXTT2=
EXTT3=
EXTT4=
EXTT5=
EXTT6=
EXTT7=
EXTT8=
EXTT9=
EXTT10=
EXTT11=
EXTT12=
EXTT13=
EXTT14=
EXTT15=
EXTT16=
EXTT17=
EXTT18=
EXTT19=
PLAYORDER=
